M48
; DRILL file KiCad 10.0.1 date 2026-06-06T13:51:00
; FORMAT={-:-/ absolute / metric / decimal}
; #@! TF.CreationDate,2026-06-06T13:51:00-04:00
; #@! TF.GenerationSoftware,Kicad,Pcbnew,10.0.1
; #@! TF.FileFunction,Plated,1,2,PTH
FMAT,2
METRIC
; #@! TA.AperFunction,Plated,PTH,ViaDrill
T1C0.300
; #@! TA.AperFunction,Plated,PTH,ComponentDrill
T2C0.600
; #@! TA.AperFunction,Plated,PTH,ComponentDrill
T3C0.700
; #@! TA.AperFunction,Plated,PTH,ComponentDrill
T4C0.800
; #@! TA.AperFunction,Plated,PTH,ComponentDrill
T5C0.900
; #@! TA.AperFunction,Plated,PTH,ComponentDrill
T6C1.000
; #@! TA.AperFunction,Plated,PTH,ComponentDrill
T7C1.100
; #@! TA.AperFunction,Plated,PTH,ComponentDrill
T8C1.200
; #@! TA.AperFunction,Plated,PTH,ComponentDrill
T9C1.600
%
G90
G05
T1
X124.7Y-82.3
X136.5Y-104.75
X140.1Y-89.4
X143.1Y-105.3
X144.25Y-86.5
X146.25Y-95.75
X153.0Y-102.5
X158.0Y-100.0
X161.0Y-99.5
X166.0Y-95.5
X168.5Y-90.5
X175.4Y-88.1
X186.0Y-80.5
T2
X193.538Y-90.255
X193.538Y-92.255
T3
X129.955Y-137.217
X131.588Y-135.271
X133.221Y-133.325
T4
X121.601Y-68.665
X121.601Y-72.465
X131.76Y-72.777
X131.76Y-76.577
X134.651Y-53.215
X134.651Y-57.015
X140.089Y-113.643
X140.55Y-78.81
X140.55Y-82.61
X141.822Y-111.786
X143.554Y-109.928
X145.286Y-108.071
X145.662Y-118.84
X147.018Y-106.213
X147.395Y-116.983
X148.751Y-104.355
X149.127Y-115.125
X149.408Y-120.592
X149.9Y-87.1
X149.9Y-90.9
X150.483Y-102.498
X150.859Y-113.267
X152.591Y-111.41
X154.324Y-109.552
X155.267Y-99.381
X156.056Y-107.694
X156.592Y-113.408
X156.999Y-97.523
X158.732Y-95.666
X160.464Y-93.808
X160.84Y-104.578
X162.196Y-91.951
X162.572Y-102.72
X163.928Y-90.093
X164.305Y-100.863
X164.408Y-106.092
X165.661Y-88.235
X166.037Y-99.005
X167.769Y-97.147
X169.501Y-95.29
X171.234Y-93.432
X171.592Y-98.908
X174.525Y-80.975
X174.525Y-83.475
T5
X188.9Y-59.8
X188.9Y-62.34
X198.5Y-68.5
X198.5Y-71.04
T7
X136.147Y-117.441
X143.331Y-124.625
X157.834Y-90.086
X159.63Y-88.29
X161.426Y-86.494
T8
X111.791Y-77.185
X114.291Y-81.515
X116.791Y-85.845
X125.81Y-92.26
X128.31Y-96.59
X130.81Y-100.92
X154.429Y-128.071
X157.964Y-124.536
X161.5Y-121.0
X169.686Y-112.758
X173.222Y-109.222
X176.758Y-105.686
T9
X142.14Y-71.955
X149.328Y-67.805
X152.013Y-66.255
T6
G00X127.682Y-124.396
M15
G01X128.967Y-125.928
M16
G05
G00X132.278Y-120.539
M15
G01X133.563Y-122.071
M16
G05
G00X132.878Y-127.477
M15
G01X134.41Y-126.191
M16
G05
G00X141.866Y-135.22
M15
G01X143.836Y-135.567
M16
G05
G00X142.908Y-129.311
M15
G01X144.878Y-129.658
M16
G05
G00X147.827Y-134.24
M15
G01X148.174Y-132.27
M16
G05
M30
