%TF.GenerationSoftware,KiCad,Pcbnew,10.0.1*%
%TF.CreationDate,2026-06-06T13:51:02-04:00*%
%TF.ProjectId,g-06-perc-02-rev-a,672d3036-2d70-4657-9263-2d30322d7265,rev?*%
%TF.SameCoordinates,Original*%
%TF.FileFunction,Soldermask,Bot*%
%TF.FilePolarity,Negative*%
%FSLAX46Y46*%
G04 Gerber Fmt 4.6, Leading zero omitted, Abs format (unit mm)*
G04 Created by KiCad (PCBNEW 10.0.1) date 2026-06-06 13:51:02*
%MOMM*%
%LPD*%
G01*
G04 APERTURE LIST*
G04 Aperture macros list*
%AMRoundRect*
0 Rectangle with rounded corners*
0 $1 Rounding radius*
0 $2 $3 $4 $5 $6 $7 $8 $9 X,Y pos of 4 corners*
0 Add a 4 corners polygon primitive as box body*
4,1,4,$2,$3,$4,$5,$6,$7,$8,$9,$2,$3,0*
0 Add four circle primitives for the rounded corners*
1,1,$1+$1,$2,$3*
1,1,$1+$1,$4,$5*
1,1,$1+$1,$6,$7*
1,1,$1+$1,$8,$9*
0 Add four rect primitives between the rounded corners*
20,1,$1+$1,$2,$3,$4,$5,0*
20,1,$1+$1,$4,$5,$6,$7,0*
20,1,$1+$1,$6,$7,$8,$9,0*
20,1,$1+$1,$8,$9,$2,$3,0*%
%AMHorizOval*
0 Thick line with rounded ends*
0 $1 width*
0 $2 $3 position (X,Y) of the first rounded end (center of the circle)*
0 $4 $5 position (X,Y) of the second rounded end (center of the circle)*
0 Add line between two ends*
20,1,$1,$2,$3,$4,$5,0*
0 Add two circle primitives to create the rounded ends*
1,1,$1,$2,$3*
1,1,$1,$4,$5*%
%AMRotRect*
0 Rectangle, with rotation*
0 The origin of the aperture is its center*
0 $1 length*
0 $2 width*
0 $3 Rotation angle, in degrees counterclockwise*
0 Add horizontal line*
21,1,$1,$2,0,0,$3*%
G04 Aperture macros list end*
%ADD10C,1.600000*%
%ADD11RotRect,3.000000X3.000000X210.000000*%
%ADD12C,3.000000*%
%ADD13RoundRect,0.250000X1.069885X-0.245654X-0.319687X1.050143X-1.069885X0.245654X0.319687X-1.050143X0*%
%ADD14HorizOval,1.600000X-0.292541X0.272799X0.292541X-0.272799X0*%
%ADD15C,1.800000*%
%ADD16R,1.800000X1.800000*%
%ADD17C,3.200000*%
%ADD18RotRect,3.500000X3.500000X80.000000*%
%ADD19RoundRect,0.750000X0.854572X-0.912254X1.115044X0.564958X-0.854572X0.912254X-1.115044X-0.564958X0*%
%ADD20RoundRect,0.875000X0.709765X-1.013649X1.013649X0.709765X-0.709765X1.013649X-1.013649X-0.709765X0*%
%ADD21RotRect,3.000000X3.000000X315.000000*%
%ADD22RoundRect,0.250000X-0.550000X0.550000X-0.550000X-0.550000X0.550000X-0.550000X0.550000X0.550000X0*%
%ADD23RotRect,3.500000X3.500000X40.000000*%
%ADD24RoundRect,0.750000X0.068254X-1.248135X1.217321X-0.283954X-0.068254X1.248135X-1.217321X0.283954X0*%
%ADD25RoundRect,0.875000X-0.107850X-1.232728X1.232728X-0.107850X0.107850X1.232728X-1.232728X0.107850X0*%
%ADD26RoundRect,0.250000X-0.350000X0.350000X-0.350000X-0.350000X0.350000X-0.350000X0.350000X0.350000X0*%
%ADD27C,1.200000*%
%ADD28RotRect,1.500000X1.500000X50.000000*%
%ADD29RoundRect,0.249999X-1.202083X0.000000X0.000000X-1.202083X1.202083X0.000000X0.000000X1.202083X0*%
%ADD30C,2.200000*%
%ADD31C,3.500000*%
%ADD32RotRect,1.905000X2.000000X225.000000*%
%ADD33HorizOval,1.905000X-0.033588X0.033588X0.033588X-0.033588X0*%
G04 APERTURE END LIST*
D10*
%TO.C,C7*%
X174525000Y-83475000D03*
X174525000Y-80975000D03*
%TD*%
D11*
%TO.C,RV2*%
X111790706Y-77185043D03*
D12*
X114290706Y-81515170D03*
X116790706Y-85845296D03*
%TD*%
D13*
%TO.C,U1*%
X145662242Y-118840316D03*
D14*
X147394518Y-116982678D03*
X149126794Y-115125039D03*
X150859070Y-113267400D03*
X152591345Y-111409762D03*
X154323623Y-109552124D03*
X156055897Y-107694486D03*
X150482982Y-102497658D03*
X148750706Y-104355296D03*
X147018430Y-106212935D03*
X145286154Y-108070574D03*
X143553878Y-109928212D03*
X141821603Y-111785851D03*
X140089326Y-113643488D03*
%TD*%
D15*
%TO.C,J4*%
X152012551Y-66255296D03*
X142139861Y-71955296D03*
X149327872Y-67805296D03*
%TD*%
D13*
%TO.C,U9*%
X160839966Y-104577954D03*
D14*
X162572242Y-102720316D03*
X164304518Y-100862677D03*
X166036794Y-99005038D03*
X167769069Y-97147400D03*
X169501347Y-95289762D03*
X171233621Y-93432124D03*
X165660706Y-88235296D03*
X163928430Y-90092934D03*
X162196154Y-91950573D03*
X160463878Y-93808212D03*
X158731602Y-95665850D03*
X156999327Y-97523489D03*
X155267050Y-99381126D03*
%TD*%
D16*
%TO.C,D8*%
X188900000Y-62340000D03*
D15*
X188900000Y-59800000D03*
%TD*%
D11*
%TO.C,RV1*%
X125810160Y-92260169D03*
D12*
X128310160Y-96590296D03*
X130810160Y-100920423D03*
%TD*%
D17*
%TO.C,H2*%
X193200000Y-98100000D03*
%TD*%
D18*
%TO.C,J3*%
X143893055Y-129484727D03*
D19*
X142851166Y-135393573D03*
D20*
X148000706Y-133255296D03*
%TD*%
D17*
%TO.C,H4*%
X142200706Y-61775296D03*
%TD*%
D21*
%TO.C,RV3*%
X169686471Y-112757538D03*
D12*
X173222005Y-109222004D03*
X176757539Y-105686470D03*
%TD*%
D22*
%TO.C,C2*%
X121600706Y-68665296D03*
D10*
X121600706Y-72465296D03*
%TD*%
D16*
%TO.C,D9*%
X198500000Y-71040000D03*
D15*
X198500000Y-68500000D03*
%TD*%
D23*
%TO.C,J2*%
X132920706Y-121305296D03*
D24*
X128324439Y-125162022D03*
D25*
X133643675Y-126834068D03*
%TD*%
D21*
%TO.C,RV4*%
X154428933Y-128071069D03*
D12*
X157964467Y-124535535D03*
X161500000Y-121000000D03*
%TD*%
D22*
%TO.C,C4*%
X140550000Y-78810000D03*
D10*
X140550000Y-82610000D03*
%TD*%
D26*
%TO.C,C6*%
X193538107Y-90255296D03*
D27*
X193538107Y-92255296D03*
%TD*%
D17*
%TO.C,H3*%
X111440706Y-67485296D03*
%TD*%
D22*
%TO.C,C1*%
X134650706Y-53215296D03*
D10*
X134650706Y-57015296D03*
%TD*%
D22*
%TO.C,C5*%
X149900000Y-87100000D03*
D10*
X149900000Y-90900000D03*
%TD*%
D28*
%TO.C,SW3*%
X129955342Y-137216804D03*
X131588024Y-135271050D03*
X133220706Y-133325296D03*
%TD*%
D22*
%TO.C,C3*%
X131760000Y-72777349D03*
D10*
X131760000Y-76577349D03*
%TD*%
D17*
%TO.C,H5*%
X134920706Y-110115296D03*
%TD*%
D29*
%TO.C,D1*%
X136146503Y-117441091D03*
D30*
X143330706Y-124625296D03*
%TD*%
D10*
%TO.C,R4*%
X171592103Y-98907899D03*
X164407898Y-106092105D03*
%TD*%
D31*
%TO.C,U8*%
X147849603Y-76509604D03*
D32*
X161426052Y-86493951D03*
D33*
X159630000Y-88290000D03*
X157833951Y-90086053D03*
%TD*%
D10*
%TO.C,R5*%
X156592103Y-113407898D03*
X149407898Y-120592103D03*
%TD*%
M02*
